<svg width="168" height="56" viewBox="0 0 168 56" fill="none" xmlns="http://www.w3.org/2000/svg">
<rect x="0.7" y="0.7" width="166.6" height="54.6" rx="7.7" fill="black"/>
<rect x="0.7" y="0.7" width="166.6" height="54.6" rx="7.7" stroke="#A6A6A6" stroke-width="1.4"/>
<path d="M34.5863 29.0684C34.6032 27.7806 34.9536 26.5178 35.6048 25.3977C36.256 24.2775 37.1868 23.3364 38.3107 22.6619C37.5967 21.6664 36.6549 20.8472 35.5599 20.2692C34.4649 19.6913 33.247 19.3706 32.0029 19.3326C29.3489 19.0606 26.776 20.883 25.4236 20.883C24.045 20.883 21.9628 19.3596 19.7206 19.4046C18.2702 19.4504 16.8568 19.8621 15.6179 20.5998C14.379 21.3374 13.357 22.3758 12.6514 23.6137C9.59488 28.7802 11.8748 36.3734 14.8027 40.5496C16.2676 42.5946 17.9796 44.8789 20.2199 44.7979C22.412 44.7092 23.2308 43.4332 25.8769 43.4332C28.4985 43.4332 29.2666 44.7979 31.5523 44.7464C33.9046 44.7092 35.3866 42.6924 36.8002 40.628C37.8527 39.1709 38.6626 37.5604 39.2 35.8563C37.8333 35.292 36.6671 34.3474 35.8466 33.1403C35.0262 31.9332 34.5878 30.5171 34.5863 29.0684Z" fill="white"/>
<path d="M30.269 16.586C31.5516 15.0828 32.1835 13.1507 32.0305 11.2C30.071 11.4009 28.261 12.3152 26.9611 13.7608C26.3255 14.4669 25.8388 15.2885 25.5286 16.1784C25.2185 17.0684 25.091 18.0093 25.1535 18.9473C26.1336 18.9572 27.1032 18.7498 27.9893 18.3408C28.8754 17.9317 29.6549 17.3318 30.269 16.586Z" fill="white"/>
<path d="M53.8688 21.5H51.2789V13.5H53.9508C54.7347 13.5 55.4078 13.6602 55.9703 13.9805C56.5328 14.2982 56.9638 14.7552 57.2633 15.3516C57.5654 15.9453 57.7164 16.6576 57.7164 17.4883C57.7164 18.3216 57.5641 19.0378 57.2594 19.6367C56.9573 20.2357 56.5198 20.6966 55.9469 21.0195C55.374 21.3398 54.6813 21.5 53.8688 21.5ZM52.486 20.4453H53.8024C54.4117 20.4453 54.9183 20.3307 55.3219 20.1016C55.7255 19.8698 56.0276 19.5352 56.2281 19.0977C56.4287 18.6576 56.5289 18.1211 56.5289 17.4883C56.5289 16.8607 56.4287 16.3281 56.2281 15.8906C56.0302 15.4531 55.7347 15.1211 55.3414 14.8945C54.9482 14.668 54.4599 14.5547 53.8766 14.5547H52.486V20.4453ZM61.651 21.6211C61.0885 21.6211 60.5976 21.4922 60.1783 21.2344C59.7591 20.9766 59.4336 20.6159 59.2018 20.1523C58.97 19.6888 58.8541 19.1471 58.8541 18.5273C58.8541 17.9049 58.97 17.3607 59.2018 16.8945C59.4336 16.4284 59.7591 16.0664 60.1783 15.8086C60.5976 15.5508 61.0885 15.4219 61.651 15.4219C62.2135 15.4219 62.7044 15.5508 63.1237 15.8086C63.5429 16.0664 63.8684 16.4284 64.1002 16.8945C64.332 17.3607 64.4479 17.9049 64.4479 18.5273C64.4479 19.1471 64.332 19.6888 64.1002 20.1523C63.8684 20.6159 63.5429 20.9766 63.1237 21.2344C62.7044 21.4922 62.2135 21.6211 61.651 21.6211ZM61.6549 20.6406C62.0195 20.6406 62.3216 20.5443 62.5612 20.3516C62.8007 20.1589 62.9778 19.9023 63.0924 19.582C63.2096 19.2617 63.2682 18.9089 63.2682 18.5234C63.2682 18.1406 63.2096 17.7891 63.0924 17.4687C62.9778 17.1458 62.8007 16.8867 62.5612 16.6914C62.3216 16.4961 62.0195 16.3984 61.6549 16.3984C61.2877 16.3984 60.983 16.4961 60.7408 16.6914C60.5013 16.8867 60.3229 17.1458 60.2057 17.4687C60.0911 17.7891 60.0338 18.1406 60.0338 18.5234C60.0338 18.9089 60.0911 19.2617 60.2057 19.582C60.3229 19.9023 60.5013 20.1589 60.7408 20.3516C60.983 20.5443 61.2877 20.6406 61.6549 20.6406ZM66.8698 21.5L65.1041 15.5H66.3112L67.4869 19.9062H67.5455L68.7252 15.5H69.9323L71.1041 19.8867H71.1627L72.3307 15.5H73.5377L71.776 21.5H70.5846L69.3658 17.168H69.276L68.0573 21.5H66.8698ZM75.8141 17.9375V21.5H74.6461V15.5H75.7672V16.4766H75.8414C75.9795 16.1589 76.1956 15.9036 76.4899 15.7109C76.7867 15.5182 77.1604 15.4219 77.611 15.4219C78.0198 15.4219 78.3779 15.5078 78.6852 15.6797C78.9925 15.849 79.2308 16.1016 79.4 16.4375C79.5693 16.7734 79.6539 17.1888 79.6539 17.6836V21.5H78.486V17.8242C78.486 17.3893 78.3727 17.0495 78.1461 16.8047C77.9196 16.5573 77.6084 16.4336 77.2125 16.4336C76.9417 16.4336 76.7008 16.4922 76.4899 16.6094C76.2815 16.7266 76.1162 16.8984 75.9938 17.125C75.874 17.349 75.8141 17.6198 75.8141 17.9375ZM82.3883 13.5V21.5H81.2203V13.5H82.3883ZM86.4869 21.6211C85.9244 21.6211 85.4336 21.4922 85.0143 21.2344C84.595 20.9766 84.2695 20.6159 84.0377 20.1523C83.8059 19.6888 83.6901 19.1471 83.6901 18.5273C83.6901 17.9049 83.8059 17.3607 84.0377 16.8945C84.2695 16.4284 84.595 16.0664 85.0143 15.8086C85.4336 15.5508 85.9244 15.4219 86.4869 15.4219C87.0494 15.4219 87.5403 15.5508 87.9596 15.8086C88.3789 16.0664 88.7044 16.4284 88.9362 16.8945C89.1679 17.3607 89.2838 17.9049 89.2838 18.5273C89.2838 19.1471 89.1679 19.6888 88.9362 20.1523C88.7044 20.6159 88.3789 20.9766 87.9596 21.2344C87.5403 21.4922 87.0494 21.6211 86.4869 21.6211ZM86.4908 20.6406C86.8554 20.6406 87.1575 20.5443 87.3971 20.3516C87.6367 20.1589 87.8138 19.9023 87.9283 19.582C88.0455 19.2617 88.1041 18.9089 88.1041 18.5234C88.1041 18.1406 88.0455 17.7891 87.9283 17.4687C87.8138 17.1458 87.6367 16.8867 87.3971 16.6914C87.1575 16.4961 86.8554 16.3984 86.4908 16.3984C86.1237 16.3984 85.819 16.4961 85.5768 16.6914C85.3372 16.8867 85.1588 17.1458 85.0416 17.4687C84.927 17.7891 84.8698 18.1406 84.8698 18.5234C84.8698 18.9089 84.927 19.2617 85.0416 19.582C85.1588 19.9023 85.3372 20.1589 85.5768 20.3516C85.819 20.5443 86.1237 20.6406 86.4908 20.6406ZM92.3336 21.6328C91.9534 21.6328 91.6097 21.5625 91.3024 21.4219C90.9951 21.2786 90.7516 21.0716 90.5719 20.8008C90.3948 20.5299 90.3063 20.1979 90.3063 19.8047C90.3063 19.4661 90.3714 19.1875 90.5016 18.9687C90.6318 18.75 90.8076 18.5768 91.0289 18.4492C91.2503 18.3216 91.4977 18.2253 91.7711 18.1602C92.0446 18.0951 92.3232 18.0456 92.6071 18.0117C92.9664 17.9701 93.2581 17.9362 93.4821 17.9102C93.706 17.8815 93.8688 17.8359 93.9703 17.7734C94.0719 17.7109 94.1227 17.6094 94.1227 17.4687V17.4414C94.1227 17.1003 94.0263 16.8359 93.8336 16.6484C93.6435 16.4609 93.3597 16.3672 92.9821 16.3672C92.5888 16.3672 92.2789 16.4544 92.0524 16.6289C91.8284 16.8008 91.6735 16.9922 91.5875 17.2031L90.4899 16.9531C90.6201 16.5885 90.8102 16.2943 91.0602 16.0703C91.3128 15.8437 91.6031 15.6797 91.9313 15.5781C92.2594 15.474 92.6045 15.4219 92.9664 15.4219C93.206 15.4219 93.4599 15.4505 93.7281 15.5078C93.999 15.5625 94.2516 15.6641 94.486 15.8125C94.7229 15.9609 94.917 16.1732 95.068 16.4492C95.219 16.7227 95.2946 17.0781 95.2946 17.5156V21.5H94.1539V20.6797H94.1071C94.0315 20.8307 93.9183 20.9792 93.7672 21.125C93.6162 21.2708 93.4222 21.3919 93.1852 21.4883C92.9482 21.5846 92.6643 21.6328 92.3336 21.6328ZM92.5875 20.6953C92.9104 20.6953 93.1865 20.6315 93.4156 20.5039C93.6474 20.3763 93.8232 20.2096 93.943 20.0039C94.0654 19.7956 94.1266 19.5729 94.1266 19.3359V18.5625C94.0849 18.6042 94.0042 18.6432 93.8844 18.6797C93.7672 18.7135 93.6331 18.7435 93.4821 18.7695C93.331 18.793 93.1839 18.8151 93.0406 18.8359C92.8974 18.8542 92.7776 18.8698 92.6813 18.8828C92.4547 18.9115 92.2477 18.9596 92.0602 19.0273C91.8753 19.0951 91.7268 19.1927 91.6149 19.3203C91.5055 19.4453 91.4508 19.612 91.4508 19.8203C91.4508 20.1094 91.5576 20.3281 91.7711 20.4766C91.9847 20.6224 92.2568 20.6953 92.5875 20.6953ZM99.0963 21.6172C98.6119 21.6172 98.1796 21.4935 97.7994 21.2461C97.4218 20.9961 97.125 20.6406 96.9088 20.1797C96.6953 19.7161 96.5885 19.1602 96.5885 18.5117C96.5885 17.8633 96.6966 17.3086 96.9127 16.8477C97.1315 16.3867 97.4309 16.0339 97.8112 15.7891C98.1914 15.5443 98.6224 15.4219 99.1041 15.4219C99.4765 15.4219 99.776 15.4844 100.003 15.6094C100.232 15.7318 100.409 15.875 100.534 16.0391C100.661 16.2031 100.76 16.3477 100.831 16.4727H100.901V13.5H102.069V21.5H100.928V20.5664H100.831C100.76 20.694 100.659 20.8398 100.526 21.0039C100.396 21.168 100.216 21.3112 99.9869 21.4336C99.7578 21.556 99.4609 21.6172 99.0963 21.6172ZM99.3541 20.6211C99.6901 20.6211 99.9739 20.5326 100.206 20.3555C100.44 20.1758 100.617 19.9271 100.737 19.6094C100.859 19.2917 100.921 18.9219 100.921 18.5C100.921 18.0833 100.861 17.7187 100.741 17.4062C100.621 17.0937 100.445 16.8503 100.214 16.6758C99.9817 16.5013 99.6953 16.4141 99.3541 16.4141C99.0026 16.4141 98.7096 16.5052 98.4752 16.6875C98.2408 16.8698 98.0638 17.1185 97.944 17.4336C97.8268 17.7487 97.7682 18.1042 97.7682 18.5C97.7682 18.901 97.8281 19.2617 97.9479 19.582C98.0677 19.9023 98.2448 20.1562 98.4791 20.3437C98.7161 20.5286 99.0078 20.6211 99.3541 20.6211ZM109.174 21.6211C108.612 21.6211 108.121 21.4922 107.702 21.2344C107.283 20.9766 106.957 20.6159 106.725 20.1523C106.493 19.6888 106.378 19.1471 106.378 18.5273C106.378 17.9049 106.493 17.3607 106.725 16.8945C106.957 16.4284 107.283 16.0664 107.702 15.8086C108.121 15.5508 108.612 15.4219 109.174 15.4219C109.737 15.4219 110.228 15.5508 110.647 15.8086C111.066 16.0664 111.392 16.4284 111.624 16.8945C111.855 17.3607 111.971 17.9049 111.971 18.5273C111.971 19.1471 111.855 19.6888 111.624 20.1523C111.392 20.6159 111.066 20.9766 110.647 21.2344C110.228 21.4922 109.737 21.6211 109.174 21.6211ZM109.178 20.6406C109.543 20.6406 109.845 20.5443 110.085 20.3516C110.324 20.1589 110.501 19.9023 110.616 19.582C110.733 19.2617 110.792 18.9089 110.792 18.5234C110.792 18.1406 110.733 17.7891 110.616 17.4687C110.501 17.1458 110.324 16.8867 110.085 16.6914C109.845 16.4961 109.543 16.3984 109.178 16.3984C108.811 16.3984 108.506 16.4961 108.264 16.6914C108.025 16.8867 107.846 17.1458 107.729 17.4687C107.615 17.7891 107.557 18.1406 107.557 18.5234C107.557 18.9089 107.615 19.2617 107.729 19.582C107.846 19.9023 108.025 20.1589 108.264 20.3516C108.506 20.5443 108.811 20.6406 109.178 20.6406ZM114.443 17.9375V21.5H113.275V15.5H114.396V16.4766H114.47C114.608 16.1589 114.825 15.9036 115.119 15.7109C115.416 15.5182 115.789 15.4219 116.24 15.4219C116.649 15.4219 117.007 15.5078 117.314 15.6797C117.621 15.849 117.86 16.1016 118.029 16.4375C118.198 16.7734 118.283 17.1888 118.283 17.6836V21.5H117.115V17.8242C117.115 17.3893 117.002 17.0495 116.775 16.8047C116.548 16.5573 116.237 16.4336 115.841 16.4336C115.571 16.4336 115.33 16.4922 115.119 16.6094C114.91 16.7266 114.745 16.8984 114.623 17.125C114.503 17.349 114.443 17.6198 114.443 17.9375ZM125.561 15.5V16.4375H122.284V15.5H125.561ZM123.163 14.0625H124.331V19.7383C124.331 19.9648 124.365 20.1354 124.432 20.25C124.5 20.362 124.587 20.4388 124.694 20.4805C124.803 20.5195 124.922 20.5391 125.049 20.5391C125.143 20.5391 125.225 20.5326 125.296 20.5195C125.366 20.5065 125.421 20.4961 125.46 20.4883L125.671 21.4531C125.603 21.4792 125.506 21.5052 125.381 21.5313C125.256 21.5599 125.1 21.5755 124.913 21.5781C124.605 21.5833 124.319 21.5286 124.053 21.4141C123.788 21.2995 123.573 21.1224 123.409 20.8828C123.245 20.6432 123.163 20.3424 123.163 19.9805V14.0625ZM128.15 17.9375V21.5H126.982V13.5H128.134V16.4766H128.209C128.349 16.1536 128.564 15.8971 128.853 15.707C129.142 15.5169 129.52 15.4219 129.986 15.4219C130.397 15.4219 130.757 15.5065 131.064 15.6758C131.374 15.8451 131.614 16.0977 131.783 16.4336C131.955 16.7669 132.041 17.1836 132.041 17.6836V21.5H130.873V17.8242C130.873 17.3841 130.759 17.043 130.533 16.8008C130.306 16.556 129.991 16.4336 129.588 16.4336C129.311 16.4336 129.064 16.4922 128.845 16.6094C128.629 16.7266 128.459 16.8984 128.334 17.125C128.211 17.349 128.15 17.6198 128.15 17.9375ZM136.185 21.6211C135.594 21.6211 135.085 21.4948 134.658 21.2422C134.233 20.987 133.905 20.6289 133.673 20.168C133.444 19.7044 133.33 19.1615 133.33 18.5391C133.33 17.9245 133.444 17.3828 133.673 16.9141C133.905 16.4453 134.228 16.0794 134.642 15.8164C135.059 15.5534 135.546 15.4219 136.103 15.4219C136.442 15.4219 136.77 15.4779 137.088 15.5898C137.405 15.7018 137.69 15.8776 137.943 16.1172C138.196 16.3568 138.395 16.668 138.541 17.0508C138.686 17.431 138.759 17.8932 138.759 18.4375V18.8516H133.99V17.9766H137.615C137.615 17.6693 137.552 17.3971 137.427 17.1602C137.302 16.9206 137.127 16.7318 136.9 16.5937C136.676 16.4557 136.413 16.3867 136.111 16.3867C135.783 16.3867 135.496 16.4674 135.252 16.6289C135.009 16.7878 134.822 16.9961 134.689 17.2539C134.559 17.5091 134.494 17.7865 134.494 18.0859V18.7695C134.494 19.1706 134.564 19.5117 134.705 19.793C134.848 20.0742 135.047 20.2891 135.302 20.4375C135.558 20.5833 135.856 20.6562 136.197 20.6562C136.418 20.6562 136.62 20.625 136.802 20.5625C136.985 20.4974 137.142 20.401 137.275 20.2734C137.408 20.1458 137.509 19.9883 137.58 19.8008L138.685 20C138.597 20.3255 138.438 20.6107 138.209 20.8555C137.982 21.0977 137.697 21.2865 137.353 21.4219C137.012 21.5547 136.623 21.6211 136.185 21.6211Z" fill="white"/>
<path d="M53.2267 41.5H50.8972L56.1316 26.9545H58.6671L63.9014 41.5H61.5719L57.4597 29.5966H57.346L53.2267 41.5ZM53.6174 35.804H61.1742V37.6506H53.6174V35.804ZM65.1735 45.5909V30.5909H67.2474V32.3594H67.4249C67.548 32.1321 67.7256 31.8693 67.9576 31.571C68.1896 31.2727 68.5116 31.0123 68.9235 30.7898C69.3354 30.5625 69.8799 30.4489 70.557 30.4489C71.4377 30.4489 72.2237 30.6714 72.915 31.1165C73.6063 31.5616 74.1484 32.2031 74.5414 33.0412C74.9391 33.8793 75.138 34.8878 75.138 36.0668C75.138 37.2457 74.9415 38.2566 74.5485 39.0994C74.1555 39.9375 73.6157 40.5838 72.9292 41.0384C72.2426 41.4882 71.459 41.7131 70.5783 41.7131C69.9154 41.7131 69.3733 41.6018 68.9519 41.3793C68.5352 41.1567 68.2085 40.8963 67.9718 40.598C67.735 40.2997 67.5527 40.0346 67.4249 39.8026H67.2971V45.5909H65.1735ZM67.2545 36.0455C67.2545 36.8125 67.3657 37.4848 67.5883 38.0625C67.8108 38.6402 68.1328 39.0923 68.5542 39.419C68.9756 39.741 69.4917 39.902 70.1025 39.902C70.7369 39.902 71.2672 39.7339 71.6934 39.3977C72.1195 39.0568 72.4415 38.5952 72.6593 38.0128C72.8818 37.4304 72.9931 36.7746 72.9931 36.0455C72.9931 35.3258 72.8842 34.6795 72.6664 34.1065C72.4533 33.5336 72.1313 33.0814 71.7005 32.75C71.2743 32.4186 70.7417 32.2528 70.1025 32.2528C69.4869 32.2528 68.9661 32.4115 68.54 32.7287C68.1186 33.0459 67.799 33.4886 67.5812 34.0568C67.3634 34.625 67.2545 35.2879 67.2545 36.0455ZM76.8592 45.5909V30.5909H78.9331V32.3594H79.1107C79.2338 32.1321 79.4113 31.8693 79.6433 31.571C79.8753 31.2727 80.1973 31.0123 80.6092 30.7898C81.0212 30.5625 81.5657 30.4489 82.2428 30.4489C83.1234 30.4489 83.9094 30.6714 84.6007 31.1165C85.292 31.5616 85.8341 32.2031 86.2271 33.0412C86.6249 33.8793 86.8237 34.8878 86.8237 36.0668C86.8237 37.2457 86.6272 38.2566 86.2342 39.0994C85.8412 39.9375 85.3015 40.5838 84.6149 41.0384C83.9284 41.4882 83.1447 41.7131 82.2641 41.7131C81.6012 41.7131 81.059 41.6018 80.6376 41.3793C80.221 41.1567 79.8943 40.8963 79.6575 40.598C79.4208 40.2997 79.2385 40.0346 79.1107 39.8026H78.9828V45.5909H76.8592ZM78.9402 36.0455C78.9402 36.8125 79.0515 37.4848 79.274 38.0625C79.4965 38.6402 79.8185 39.0923 80.2399 39.419C80.6613 39.741 81.1774 39.902 81.7882 39.902C82.4227 39.902 82.953 39.7339 83.3791 39.3977C83.8053 39.0568 84.1272 38.5952 84.345 38.0128C84.5676 37.4304 84.6788 36.7746 84.6788 36.0455C84.6788 35.3258 84.5699 34.6795 84.3521 34.1065C84.1391 33.5336 83.8171 33.0814 83.3862 32.75C82.9601 32.4186 82.4274 32.2528 81.7882 32.2528C81.1727 32.2528 80.6519 32.4115 80.2257 32.7287C79.8043 33.0459 79.4847 33.4886 79.2669 34.0568C79.0491 34.625 78.9402 35.2879 78.9402 36.0455ZM101.284 30.7756C101.208 30.1032 100.895 29.5824 100.346 29.2131C99.7969 28.839 99.1056 28.652 98.2723 28.652C97.6757 28.652 97.1596 28.7467 96.724 28.9361C96.2884 29.1207 95.9498 29.3764 95.7084 29.7031C95.4716 30.0251 95.3533 30.392 95.3533 30.804C95.3533 31.1496 95.4337 31.4479 95.5947 31.6989C95.7604 31.9498 95.9759 32.1605 96.241 32.331C96.5109 32.4967 96.7997 32.6364 97.1075 32.75C97.4153 32.8589 97.7112 32.9489 97.9953 33.0199L99.4158 33.3892C99.8798 33.5028 100.356 33.6567 100.843 33.8509C101.331 34.045 101.783 34.3007 102.2 34.6179C102.617 34.9351 102.953 35.3281 103.208 35.7969C103.469 36.2656 103.599 36.8267 103.599 37.4801C103.599 38.304 103.386 39.0355 102.96 39.6747C102.538 40.3139 101.925 40.8182 101.12 41.1875C100.32 41.5568 99.3518 41.7415 98.2155 41.7415C97.1265 41.7415 96.1842 41.5687 95.3888 41.223C94.5933 40.8774 93.9707 40.3873 93.5209 39.7528C93.0711 39.1136 92.8225 38.3561 92.7751 37.4801H94.9768C95.0194 38.0057 95.1899 38.4437 95.4882 38.794C95.7912 39.1397 96.1771 39.3977 96.6459 39.5682C97.1194 39.7339 97.6378 39.8168 98.2013 39.8168C98.8215 39.8168 99.3731 39.7197 99.8561 39.5256C100.344 39.3267 100.727 39.0521 101.007 38.7017C101.286 38.3466 101.426 37.9323 101.426 37.4588C101.426 37.0279 101.303 36.6752 101.056 36.4006C100.815 36.1259 100.486 35.8987 100.069 35.7188C99.6572 35.5388 99.1908 35.3802 98.67 35.2429L96.9513 34.7741C95.7865 34.4569 94.8632 33.9905 94.1814 33.375C93.5043 32.7595 93.1658 31.9451 93.1658 30.9318C93.1658 30.0937 93.393 29.3622 93.8476 28.7372C94.3021 28.1122 94.9176 27.6269 95.6942 27.2812C96.4707 26.9309 97.3466 26.7557 98.322 26.7557C99.3069 26.7557 100.176 26.9285 100.929 27.2741C101.686 27.6198 102.283 28.0956 102.718 28.7017C103.154 29.303 103.381 29.9943 103.4 30.7756H101.284ZM110.485 30.5909V32.2955H104.527V30.5909H110.485ZM106.125 27.9773H108.248V38.2969C108.248 38.7088 108.31 39.0189 108.433 39.2273C108.556 39.4309 108.715 39.5705 108.909 39.6463C109.108 39.7173 109.323 39.7528 109.555 39.7528C109.725 39.7528 109.875 39.741 110.002 39.7173C110.13 39.6937 110.23 39.6747 110.301 39.6605L110.684 41.4148C110.561 41.4621 110.386 41.5095 110.159 41.5568C109.931 41.6089 109.647 41.6373 109.306 41.642C108.748 41.6515 108.227 41.5521 107.744 41.3438C107.261 41.1354 106.87 40.8134 106.572 40.3778C106.274 39.9422 106.125 39.3954 106.125 38.7372V27.9773ZM116.654 41.7202C115.632 41.7202 114.739 41.4858 113.977 41.017C113.215 40.5483 112.623 39.8925 112.201 39.0497C111.78 38.2069 111.569 37.2221 111.569 36.0952C111.569 34.9635 111.78 33.974 112.201 33.1264C112.623 32.2789 113.215 31.6207 113.977 31.152C114.739 30.6832 115.632 30.4489 116.654 30.4489C117.677 30.4489 118.57 30.6832 119.332 31.152C120.094 31.6207 120.686 32.2789 121.108 33.1264C121.529 33.974 121.74 34.9635 121.74 36.0952C121.74 37.2221 121.529 38.2069 121.108 39.0497C120.686 39.8925 120.094 40.5483 119.332 41.017C118.57 41.4858 117.677 41.7202 116.654 41.7202ZM116.662 39.9375C117.324 39.9375 117.874 39.7623 118.309 39.4119C118.745 39.0616 119.067 38.5952 119.275 38.0128C119.488 37.4304 119.595 36.7888 119.595 36.0881C119.595 35.392 119.488 34.7528 119.275 34.1705C119.067 33.5833 118.745 33.1122 118.309 32.7571C117.874 32.402 117.324 32.2244 116.662 32.2244C115.994 32.2244 115.44 32.402 115 32.7571C114.564 33.1122 114.24 33.5833 114.027 34.1705C113.818 34.7528 113.714 35.392 113.714 36.0881C113.714 36.7888 113.818 37.4304 114.027 38.0128C114.24 38.5952 114.564 39.0616 115 39.4119C115.44 39.7623 115.994 39.9375 116.662 39.9375ZM123.452 41.5V30.5909H125.505V32.3239H125.618C125.817 31.7367 126.167 31.2751 126.669 30.9389C127.176 30.598 127.749 30.4276 128.388 30.4276C128.521 30.4276 128.677 30.4323 128.857 30.4418C129.042 30.4512 129.186 30.4631 129.29 30.4773V32.5085C129.205 32.4848 129.053 32.4588 128.836 32.4304C128.618 32.3973 128.4 32.3807 128.182 32.3807C127.68 32.3807 127.233 32.4872 126.84 32.7003C126.452 32.9086 126.144 33.1998 125.917 33.5739C125.689 33.9432 125.576 34.3646 125.576 34.8381V41.5H123.452ZM134.781 41.7202C133.706 41.7202 132.78 41.4905 132.004 41.0312C131.232 40.5672 130.636 39.9162 130.214 39.0781C129.797 38.2353 129.589 37.2481 129.589 36.1165C129.589 34.9991 129.797 34.0142 130.214 33.1619C130.636 32.3097 131.223 31.6444 131.976 31.1662C132.733 30.688 133.619 30.4489 134.632 30.4489C135.247 30.4489 135.844 30.5507 136.422 30.7543C136.999 30.9579 137.518 31.2775 137.977 31.7131C138.436 32.1487 138.798 32.7145 139.064 33.4105C139.329 34.1018 139.461 34.9422 139.461 35.9318V36.6847H130.789V35.0938H137.38C137.38 34.535 137.267 34.0402 137.039 33.6094C136.812 33.1738 136.493 32.8305 136.081 32.5795C135.673 32.3286 135.195 32.2031 134.646 32.2031C134.049 32.2031 133.529 32.3499 133.083 32.6435C132.643 32.9323 132.302 33.3111 132.061 33.7798C131.824 34.2438 131.706 34.7481 131.706 35.2926V36.5355C131.706 37.2647 131.833 37.8849 132.089 38.3963C132.35 38.9077 132.712 39.2983 133.176 39.5682C133.64 39.8333 134.182 39.9659 134.802 39.9659C135.205 39.9659 135.572 39.9091 135.903 39.7955C136.235 39.6771 136.521 39.5019 136.762 39.2699C137.004 39.0379 137.189 38.7514 137.316 38.4105L139.326 38.7727C139.165 39.3646 138.877 39.883 138.46 40.3281C138.048 40.7685 137.529 41.1117 136.904 41.358C136.284 41.5994 135.576 41.7202 134.781 41.7202Z" fill="white"/>
</svg>
