<svg width="21" height="21" viewBox="0 0 21 21" fill="none" xmlns="http://www.w3.org/2000/svg">
<path d="M11.25 0.75C11.25 0.75 13.584 0.962 16.553 3.932C19.523 6.902 19.735 9.235 19.735 9.235M11.957 4.286C11.957 4.286 12.947 4.568 14.432 6.053C15.917 7.538 16.2 8.528 16.2 8.528" stroke="#111827" stroke-width="1.5" stroke-linecap="round"/>
<path d="M13.395 14.2933L13.85 13.8133L12.762 12.7803L12.307 13.2613L13.395 14.2933ZM15.349 13.6113L17.259 14.7123L18.008 13.4113L16.097 12.3113L15.349 13.6113ZM17.628 16.9913L16.208 18.4863L17.295 19.5203L18.715 18.0253L17.628 16.9913ZM15.353 18.9663C13.918 19.1073 10.173 18.9873 6.109 14.7093L5.022 15.7413C9.451 20.4043 13.676 20.6403 15.5 20.4593L15.353 18.9663ZM6.109 14.7093C2.233 10.6283 1.583 7.18527 1.502 5.67527L0.00400125 5.75627C0.104001 7.60627 0.888001 11.3893 5.022 15.7413L6.109 14.7093ZM7.485 8.07127L7.771 7.76927L6.684 6.73627L6.397 7.03827L7.485 8.07127ZM7.997 4.00927L6.736 2.22727L5.511 3.09327L6.771 4.87627L7.997 4.00927ZM2.467 1.84127L0.899001 3.49527L1.987 4.52827L3.557 2.87527L2.467 1.84127ZM6.941 7.55427C6.76103 7.38082 6.57936 7.20914 6.396 7.03927L6.394 7.04127L6.391 7.04427L6.341 7.10227C6.24308 7.23209 6.16552 7.37608 6.111 7.52927C6.013 7.80427 5.961 8.16827 6.027 8.62227C6.157 9.51427 6.742 10.7133 8.269 12.3223L9.357 11.2883C7.929 9.78527 7.577 8.86027 7.511 8.40427C7.479 8.18427 7.511 8.06927 7.524 8.03227L7.532 8.01327L7.504 8.05027L7.486 8.07027C7.486 8.07027 7.484 8.07027 6.941 7.55427ZM8.269 12.3223C9.792 13.9263 10.942 14.5553 11.819 14.6983C12.27 14.7713 12.635 14.7123 12.911 14.6033C13.0641 14.5436 13.2063 14.4591 13.332 14.3533L13.368 14.3193L13.382 14.3053L13.389 14.2993L13.392 14.2963L13.393 14.2943C13.393 14.2943 13.395 14.2933 12.851 13.7763C12.307 13.2603 12.308 13.2593 12.308 13.2583L12.31 13.2573L12.312 13.2543L12.317 13.2493L12.327 13.2393L12.364 13.2073C12.374 13.2019 12.3727 13.2023 12.36 13.2083C12.34 13.2163 12.25 13.2483 12.06 13.2173C11.658 13.1513 10.79 12.7973 9.357 11.2883L8.269 12.3223ZM6.736 2.22727C5.722 0.793272 3.694 0.550272 2.468 1.84227L3.554 2.87527C4.077 2.32527 4.999 2.36827 5.511 3.09327L6.736 2.22727ZM1.502 5.67527C1.48 5.27527 1.655 4.87627 1.987 4.52827L0.899001 3.49527C0.363001 4.05927 -0.0449987 4.84227 0.00400125 5.75627L1.502 5.67527ZM16.207 18.4873C15.928 18.7813 15.637 18.9383 15.353 18.9663L15.5 20.4593C16.247 20.3863 16.852 19.9873 17.295 19.5203L16.207 18.4873ZM7.771 7.77027C8.739 6.75127 8.807 5.15727 7.997 4.01027L6.772 4.87627C7.194 5.47327 7.129 6.26827 6.684 6.73627L7.771 7.77027ZM17.259 14.7123C18.08 15.1853 18.241 16.3473 17.628 16.9923L18.715 18.0253C20.02 16.6513 19.64 14.3513 18.008 13.4113L17.259 14.7123ZM13.85 13.8143C14.235 13.4083 14.836 13.3173 15.349 13.6123L16.097 12.3123C14.998 11.6803 13.637 11.8623 12.762 12.7823L13.85 13.8143Z" fill="#111827"/>
</svg>
