<svg width="32" height="32" viewBox="0 0 32 32" fill="none" xmlns="http://www.w3.org/2000/svg">
<path d="M10.6666 16H10.6786M15.9879 16H15.9999M21.3212 16H21.3332" stroke="#4F46E5" stroke-width="2.66667" stroke-linecap="round" stroke-linejoin="round"/>
<path d="M16 29.3333C23.364 29.3333 29.3333 23.364 29.3333 16C29.3333 8.63596 23.364 2.66663 16 2.66663C8.63599 2.66663 2.66666 8.63596 2.66666 16C2.66666 18.1333 3.16799 20.1493 4.05732 21.9373C4.29466 22.412 4.37332 22.9546 4.23599 23.468L3.44266 26.436C3.36408 26.7297 3.36416 27.0389 3.44286 27.3326C3.52157 27.6263 3.67615 27.8941 3.89108 28.1092C4.106 28.3242 4.37372 28.479 4.66736 28.5579C4.961 28.6367 5.27022 28.637 5.56399 28.5586L8.53199 27.764C9.04716 27.6338 9.59217 27.6969 10.064 27.9413C11.9079 28.8594 13.9401 29.3359 16 29.3333Z" stroke="#4F46E5" stroke-width="2"/>
</svg>
