<svg width="168" height="56" viewBox="0 0 168 56" fill="none" xmlns="http://www.w3.org/2000/svg">
<rect x="0.7" y="0.7" width="166.6" height="54.6" rx="7.7" fill="black"/>
<rect x="0.7" y="0.7" width="166.6" height="54.6" rx="7.7" stroke="#A6A6A6" stroke-width="1.4"/>
<path d="M24.9267 27.2463L11.3254 42.0083C11.3267 42.0109 11.3267 42.0148 11.328 42.0174C11.7457 43.6203 13.1765 44.8 14.8756 44.8C15.5552 44.8 16.1926 44.6119 16.7394 44.2827L16.7828 44.2565L32.0921 35.223L24.9267 27.2463Z" fill="#EA4335"/>
<path d="M38.6863 24.7327L38.6735 24.7235L32.0638 20.8057L24.6174 27.5819L32.0907 35.2215L38.6646 31.3429C39.8169 30.7054 40.6 29.463 40.6 28.0313C40.6 26.6073 39.8284 25.3715 38.6863 24.7327Z" fill="#FBBC04"/>
<path d="M11.3251 13.9906C11.2434 14.299 11.2 14.6229 11.2 14.9574V41.0429C11.2 41.3773 11.2434 41.7013 11.3264 42.0083L25.394 27.6239L11.3251 13.9906Z" fill="#4285F4"/>
<path d="M25.0272 27.9999L32.0661 20.8031L16.7747 11.7369C16.219 11.396 15.57 11.2 14.8763 11.2C13.1773 11.2 11.744 12.3823 11.3262 13.9865C11.3262 13.9878 11.325 13.9891 11.325 13.9904L25.0272 27.9999Z" fill="#34A853"/>
<path d="M58.5932 14C58.4838 13.6652 58.3397 13.3653 58.1607 13.1001C57.985 12.8317 57.7746 12.603 57.5293 12.4141C57.2873 12.2251 57.0122 12.081 56.704 11.9815C56.3958 11.8821 56.0577 11.8324 55.6898 11.8324C55.0866 11.8324 54.538 11.9882 54.0442 12.2997C53.5504 12.6113 53.1576 13.0703 52.8659 13.6768C52.5743 14.2834 52.4284 15.0275 52.4284 15.9091C52.4284 16.7907 52.5759 17.5348 52.8709 18.1413C53.1659 18.7479 53.5653 19.2069 54.0691 19.5185C54.5728 19.83 55.1396 19.9858 55.7693 19.9858C56.3527 19.9858 56.8664 19.8615 57.3105 19.6129C57.758 19.361 58.106 19.0064 58.3546 18.549C58.6065 18.0883 58.7324 17.5464 58.7324 16.9233L59.1103 17.0028H56.0478V15.9091H59.9256V17.0028C59.9256 17.8414 59.7466 18.5705 59.3887 19.1903C59.034 19.8101 58.5435 20.2907 57.9171 20.6321C57.294 20.9702 56.5781 21.1392 55.7693 21.1392C54.8678 21.1392 54.0757 20.9271 53.3929 20.5028C52.7135 20.0786 52.1832 19.4754 51.802 18.6932C51.4242 17.911 51.2353 16.983 51.2353 15.9091C51.2353 15.1037 51.343 14.3795 51.5584 13.7365C51.7772 13.0902 52.0854 12.54 52.4831 12.0859C52.8808 11.6319 53.3515 11.2839 53.8951 11.0419C54.4386 10.8 55.0369 10.679 55.6898 10.679C56.2267 10.679 56.7272 10.7602 57.1912 10.9226C57.6585 11.0817 58.0745 11.3087 58.4391 11.6037C58.807 11.8954 59.1136 12.245 59.3588 12.6527C59.6041 13.0571 59.7731 13.5062 59.8659 14H58.5932ZM62.0373 21V10.8182H68.1822V11.9119H63.2702V15.3523H67.864V16.446H63.2702V19.9062H68.2617V21H62.0373ZM69.8476 11.9119V10.8182H77.484V11.9119H74.2823V21H73.0493V11.9119H69.8476ZM84.5573 10.8182V21H83.3244V10.8182H84.5573ZM86.4726 11.9119V10.8182H94.109V11.9119H90.9073V21H89.6743V11.9119H86.4726ZM108.54 15.9091C108.54 16.983 108.346 17.911 107.959 18.6932C107.571 19.4754 107.039 20.0786 106.363 20.5028C105.687 20.9271 104.914 21.1392 104.046 21.1392C103.178 21.1392 102.405 20.9271 101.729 20.5028C101.053 20.0786 100.521 19.4754 100.133 18.6932C99.7456 17.911 99.5517 16.983 99.5517 15.9091C99.5517 14.8352 99.7456 13.9072 100.133 13.125C100.521 12.3428 101.053 11.7396 101.729 11.3153C102.405 10.8911 103.178 10.679 104.046 10.679C104.914 10.679 105.687 10.8911 106.363 11.3153C107.039 11.7396 107.571 12.3428 107.959 13.125C108.346 13.9072 108.54 14.8352 108.54 15.9091ZM107.347 15.9091C107.347 15.0275 107.2 14.2834 106.905 13.6768C106.613 13.0703 106.217 12.6113 105.716 12.2997C105.219 11.9882 104.662 11.8324 104.046 11.8324C103.429 11.8324 102.871 11.9882 102.371 12.2997C101.873 12.6113 101.477 13.0703 101.182 13.6768C100.891 14.2834 100.745 15.0275 100.745 15.9091C100.745 16.7907 100.891 17.5348 101.182 18.1413C101.477 18.7479 101.873 19.2069 102.371 19.5185C102.871 19.83 103.429 19.9858 104.046 19.9858C104.662 19.9858 105.219 19.83 105.716 19.5185C106.217 19.2069 106.613 18.7479 106.905 18.1413C107.2 17.5348 107.347 16.7907 107.347 15.9091ZM118.687 10.8182V21H117.494L111.946 13.0057H111.846V21H110.613V10.8182H111.807L117.375 18.8324H117.474V10.8182H118.687Z" fill="white"/>
<path d="M130.925 44.1735H133.206V28.7574H130.925V44.1735ZM151.464 34.3105L148.85 40.9944H148.772L146.059 34.3105H143.603L147.671 43.6519L145.353 48.8486H147.73L154 34.3105H151.464ZM138.533 42.4224C137.785 42.4224 136.744 42.0463 136.744 41.1127C136.744 39.924 138.04 39.4677 139.161 39.4677C140.163 39.4677 140.636 39.6859 141.244 39.9831C141.067 41.4112 139.849 42.4224 138.533 42.4224ZM138.808 33.9738C137.157 33.9738 135.446 34.7076 134.739 36.3341L136.763 37.1863C137.196 36.3341 138.001 36.0554 138.847 36.0554C140.026 36.0554 141.225 36.7695 141.244 38.0396V38.1975C140.831 37.9595 139.948 37.6031 138.866 37.6031C136.685 37.6031 134.463 38.8128 134.463 41.0733C134.463 43.1364 136.252 44.4658 138.256 44.4658C139.79 44.4658 140.636 43.7715 141.166 42.9576H141.244V44.1476H143.445V38.2369C143.445 35.5005 141.422 33.9738 138.808 33.9738ZM124.715 36.1874H121.472V30.9032H124.715C126.42 30.9032 127.388 32.3275 127.388 33.5447C127.388 34.7396 126.42 36.1874 124.715 36.1874ZM124.656 28.7574H119.193V44.1735H121.472V38.3331H124.656C127.184 38.3331 129.668 36.4858 129.668 33.5447C129.668 30.6035 127.184 28.7574 124.656 28.7574ZM94.8617 42.4249C93.2864 42.4249 91.9679 41.0943 91.9679 39.2667C91.9679 37.4193 93.2864 36.0678 94.8617 36.0678C96.4173 36.0678 97.6369 37.4193 97.6369 39.2667C97.6369 41.0943 96.4173 42.4249 94.8617 42.4249ZM97.4805 35.1737H97.4011C96.889 34.5583 95.9053 34.0022 94.6649 34.0022C92.0656 34.0022 89.6839 36.3058 89.6839 39.2667C89.6839 42.2066 92.0656 44.4917 94.6649 44.4917C95.9053 44.4917 96.889 43.9355 97.4011 43.2992H97.4805V44.0551C97.4805 46.0615 96.4173 47.1344 94.704 47.1344C93.306 47.1344 92.4396 46.1207 92.0852 45.2661L90.0969 46.101C90.6676 47.492 92.1842 49.2 94.704 49.2C97.3815 49.2 99.646 47.6104 99.646 43.737V34.3191H97.4805V35.1737ZM101.221 44.1735H103.505V28.7562H101.221V44.1735ZM106.871 39.0878C106.812 37.0617 108.426 36.0283 109.587 36.0283C110.494 36.0283 111.261 36.4846 111.517 37.1406L106.871 39.0878ZM113.959 37.3392C113.526 36.1677 112.206 34.0022 109.509 34.0022C106.832 34.0022 104.607 36.127 104.607 39.2469C104.607 42.1869 106.812 44.4917 109.764 44.4917C112.147 44.4917 113.526 43.0217 114.097 42.1671L112.325 40.9746C111.734 41.849 110.927 42.4249 109.764 42.4249C108.604 42.4249 107.776 41.8884 107.245 40.8365L114.194 37.9348L113.959 37.3392ZM58.5902 35.6115V37.8362H63.8657C63.7081 39.0878 63.295 40.0016 62.6657 40.6367C61.897 41.4124 60.6957 42.267 58.5902 42.267C55.3407 42.267 52.8013 39.6243 52.8013 36.3465C52.8013 33.0674 55.3407 30.4259 58.5902 30.4259C60.3426 30.4259 61.6221 31.1214 62.5667 32.0155L64.1224 30.4457C62.8026 29.1742 61.0514 28.2 58.5902 28.2C54.1407 28.2 50.4 31.8564 50.4 36.3465C50.4 40.8365 54.1407 44.4917 58.5902 44.4917C60.9915 44.4917 62.8026 43.6963 64.2201 42.2066C65.678 40.7366 66.1302 38.671 66.1302 37.0013C66.1302 36.4846 66.0911 36.0086 66.0116 35.6115H58.5902ZM72.1292 42.4249C70.554 42.4249 69.1951 41.114 69.1951 39.2469C69.1951 37.3589 70.554 36.0678 72.1292 36.0678C73.7032 36.0678 75.0621 37.3589 75.0621 39.2469C75.0621 41.114 73.7032 42.4249 72.1292 42.4249ZM72.1292 34.0022C69.2537 34.0022 66.9111 36.2071 66.9111 39.2469C66.9111 42.267 69.2537 44.4917 72.1292 44.4917C75.0034 44.4917 77.3461 42.267 77.3461 39.2469C77.3461 36.2071 75.0034 34.0022 72.1292 34.0022ZM83.5101 42.4249C81.9349 42.4249 80.576 41.114 80.576 39.2469C80.576 37.3589 81.9349 36.0678 83.5101 36.0678C85.0853 36.0678 86.443 37.3589 86.443 39.2469C86.443 41.114 85.0853 42.4249 83.5101 42.4249ZM83.5101 34.0022C80.6358 34.0022 78.2932 36.2071 78.2932 39.2469C78.2932 42.267 80.6358 44.4917 83.5101 44.4917C86.3843 44.4917 88.727 42.267 88.727 39.2469C88.727 36.2071 86.3843 34.0022 83.5101 34.0022Z" fill="white"/>
</svg>
