<svg width="16" height="16" viewBox="0 0 16 16" fill="none" xmlns="http://www.w3.org/2000/svg">
<path fill-rule="evenodd" clip-rule="evenodd" d="M7.99769 -0.00186619C7.99724 -0.00185432 7.99679 -0.00184157 7.99633 -0.00182666C7.99467 -0.0017264 7.993 -0.00160051 7.99134 -0.00145456C7.98656 -0.00126551 7.98179 -0.000893437 7.97703 -0.000336235C7.9352 0.00469295 7.89631 0.0237714 7.86673 0.0537813C7.83715 0.0837905 7.81863 0.122952 7.8142 0.164856C6.98912 4.40104 4.63581 7.07563 0.16688 7.81526C0.12755 7.8187 0.0903279 7.83455 0.0606034 7.86053C0.030879 7.88651 0.0101923 7.92128 0.0015304 7.9598C0.0014219 7.96043 0.00131422 7.96106 0.00121223 7.96169C6.78878e-05 7.96698 -0.00084304 7.97232 -0.00152205 7.97769C-0.00167533 7.97912 -0.00181096 7.98054 -0.00193131 7.98197C-0.00238767 7.98624 -0.00269771 7.99052 -0.0028577 7.99481C-0.00292459 7.99766 -0.00292973 8.00051 -0.00286548 8.00336C-0.00285805 8.00641 -0.0027701 8.00945 -0.00261356 8.01249C-0.00231493 8.01678 -0.00186831 8.02107 -0.00127264 8.02533C-0.00109498 8.02676 -0.000901355 8.02819 -0.0006905 8.02961C0.000202995 8.03537 0.00136744 8.04108 0.00279679 8.04673C0.0123284 8.08444 0.0334398 8.11822 0.0631611 8.14331C0.0928823 8.1684 0.129718 8.18355 0.168494 8.18662C4.63558 8.92649 6.98839 11.6001 7.81378 15.8345C7.8178 15.8775 7.83671 15.9179 7.86725 15.9485C7.89779 15.9792 7.93805 15.9982 7.98111 16.0024C7.98181 16.0026 7.98251 16.0027 7.98321 16.0029L7.98338 16.0027C7.98697 16.0028 7.99056 16.0029 7.99415 16.0028C7.99713 16.0028 8.00011 16.0029 8.00308 16.0028C8.00439 16.0028 8.0057 16.0028 8.007 16.0028C8.05175 16.0012 8.09439 15.9834 8.12712 15.9529C8.15986 15.9223 8.18047 15.881 8.18519 15.8365C9.01208 11.6003 11.3634 8.92581 15.8319 8.18601C15.8714 8.18268 15.9087 8.16687 15.9386 8.14087C15.9684 8.11487 15.9892 8.08004 15.9978 8.04144C15.9978 8.04063 15.9977 8.03982 15.9976 8.03901C15.9988 8.03374 15.9997 8.02843 16.0004 8.02308C16.0006 8.02164 16.0007 8.0202 16.0008 8.01876C16.0013 8.01451 16.0016 8.01023 16.0018 8.00595C16.0018 8.00308 16.0018 8.00021 16.0017 7.99734C16.0017 7.99432 16.0017 7.9913 16.0015 7.98828C16.0012 7.98398 16.0008 7.9797 16.0002 7.97543C16 7.97398 15.9998 7.97252 15.9995 7.97108C15.9986 7.96533 15.9975 7.95964 15.9961 7.954C15.9866 7.91635 15.9655 7.88262 15.9359 7.85753C15.9062 7.83245 15.8695 7.81727 15.8308 7.81411C11.3634 7.07431 9.01233 4.40074 8.18507 0.166187C8.18104 0.123121 8.16213 0.0828058 8.13159 0.052173C8.10105 0.0215403 8.0608 0.00250858 8.01775 -0.00165943C8.01721 -0.00173209 8.01666 -0.00180554 8.01612 -0.00187341L8.01564 -0.00192731C8.01208 -0.00215495 8.00852 -0.00227342 8.00495 -0.00229544C8.00245 -0.00246789 7.99995 -0.00259139 7.99744 -0.00266324L7.99769 -0.00186619Z" fill="#4F46E5"/>
</svg>
