<svg width="8" height="8" viewBox="0 0 8 8" fill="none" xmlns="http://www.w3.org/2000/svg">
<g clip-path="url(#clip0_4_44)">
<path d="M0.499954 2.02539C0.632517 2.02551 0.759609 2.07826 0.853287 2.17206L3.41062 4.72939C3.48801 4.8068 3.57988 4.8682 3.681 4.91009C3.78212 4.95198 3.8905 4.97355 3.99995 4.97355C4.10941 4.97355 4.21779 4.95198 4.31891 4.91009C4.42003 4.8682 4.5119 4.8068 4.58929 4.72939L7.14495 2.17539C7.23926 2.08431 7.36556 2.03391 7.49665 2.03505C7.62775 2.03619 7.75316 2.08878 7.84586 2.18148C7.93857 2.27419 7.99115 2.39959 7.99229 2.53069C7.99343 2.66179 7.94303 2.78809 7.85195 2.88239L5.29829 5.43639C4.9542 5.7798 4.48792 5.97267 4.00179 5.97267C3.51565 5.97267 3.04937 5.7798 2.70529 5.43639L0.147954 2.87906C0.0780814 2.80923 0.0304578 2.72027 0.0110935 2.62341C-0.00827184 2.52654 0.00148997 2.42611 0.0391458 2.33479C0.0768021 2.24346 0.140665 2.16534 0.222677 2.11028C0.304688 2.05521 0.401172 2.02567 0.499954 2.02539Z" fill="#111827"/>
</g>
<defs>
<clipPath id="clip0_4_44">
<rect width="8" height="8" fill="white" transform="translate(8) rotate(90)"/>
</clipPath>
</defs>
</svg>
