<svg width="32" height="32" viewBox="0 0 32 32" fill="none" xmlns="http://www.w3.org/2000/svg">
<rect x="31.5" y="0.500001" width="31" height="31" rx="7.5" transform="rotate(90 31.5 0.500001)" stroke="#4F46E5"/>
<g clip-path="url(#clip0_4_469)">
<path d="M12.5 14.0254C12.6325 14.0255 12.7596 14.0783 12.8533 14.1721L15.4106 16.7294C15.488 16.8068 15.5799 16.8682 15.681 16.9101C15.7821 16.952 15.8905 16.9735 16 16.9735C16.1094 16.9735 16.2178 16.952 16.3189 16.9101C16.42 16.8682 16.5119 16.8068 16.5893 16.7294L19.145 14.1754C19.2393 14.0843 19.3656 14.0339 19.4967 14.0351C19.6278 14.0362 19.7532 14.0888 19.8459 14.1815C19.9386 14.2742 19.9912 14.3996 19.9923 14.5307C19.9934 14.6618 19.943 14.7881 19.852 14.8824L17.2983 17.4364C16.9542 17.7798 16.4879 17.9727 16.0018 17.9727C15.5157 17.9727 15.0494 17.7798 14.7053 17.4364L12.148 14.8791C12.0781 14.8092 12.0305 14.7203 12.0111 14.6234C11.9917 14.5265 12.0015 14.4261 12.0391 14.3348C12.0768 14.2435 12.1407 14.1653 12.2227 14.1103C12.3047 14.0552 12.4012 14.0257 12.5 14.0254Z" fill="#4F46E5"/>
</g>
<defs>
<clipPath id="clip0_4_469">
<rect width="8" height="8" fill="white" transform="translate(20 12) rotate(90)"/>
</clipPath>
</defs>
</svg>
